<svg id="assets" xmlns="http://www.w3.org/2000/svg" viewBox="0 0 272 216"><defs><style>.cls-1{fill:#edece6;}.cls-2{fill:none;}.cls-3{fill:#430e32;}.cls-4{fill:#6ac1d0;}</style></defs><title>gr_em_noquestions</title><path class="cls-1" d="M199.69836,47.80682l-.00012.0008a.5.5,0,0,1-.6416.2959l-1.39746-.51612a.50025.50025,0,0,0-.38281.01514.4934.4934,0,0,0-.25879.28027l-3.14551,8.52539a.49973.49973,0,0,1-.6416.29639l-.00043-.00024-.82995,2.25024a.49643.49643,0,0,1,.31182.59473l-.79492,2.90527a.50053.50053,0,0,1-.48242.36816.5158.5158,0,0,1-.13184-.01757.48918.48918,0,0,1-.25616-.181l-3.58313,9.71441,2.92114,1.07746q1.67065.00265,3.34131.0047l8.09143-21.93708a18.10276,18.10276,0,0,1,.1322-2.84649Z"/><path class="cls-1" d="M193.20087,74.45477l.1264.04663.01715-.04644Z"/><path class="cls-1" d="M232.72363,51.84521V45.41016c-.4248-.23584-2.1914-.56446-8.82226-.48291l-.6416.00634a1.33753,1.33753,0,0,1-1.333-1.33593.33623.33623,0,0,0-.33594-.33594h-6.01953a.33623.33623,0,0,0-.33594.33594,1.33753,1.33753,0,0,1-1.33594,1.33593h-4.32812a.33623.33623,0,0,0-.33594.33594v.65625a1.33754,1.33754,0,0,1-1.33594,1.33594h-4.32714c-.03125,0-.08887,0-.17579.09521-.68652.75977-.76562,3.81348-.23632,9.07715.03808.3794.0664.65821.07422.79883.207,3.54639.14843,6.45215.08593,9.52832-.03125,1.59473-.06445,3.24707-.06347,5.07715a.50013.50013,0,0,1-.5.50049c-.00763,0-.01392-.004-.02149-.00434v1.09882q15.24417.02005,30.48828.00867v-9.9303a.49972.49972,0,0,1-.5-.5v-2.833a.49972.49972,0,0,1,.5-.5v-7.3335A.49972.49972,0,0,1,232.72363,51.84521Z"/><path class="cls-1" d="M233.22363,44.56042v-.1267h-.29425A2.22608,2.22608,0,0,1,233.22363,44.56042Z"/><path class="cls-2" d="M110.83,73.64941c-.06189-.01355-.70044-.16449-1.21967-.28064.22577,1.67682,1.02649,3.44672,2.98029,3.42255a2.88138,2.88138,0,0,0,2.68609-2.13446q-1.99648-.45409-3.993-.90826Z"/><path class="cls-2" d="M61.28125,70.27051a7.12391,7.12391,0,0,0,1.46289,4.49511c1.37207,1.59278,5.58691,1.55079,8.001.81934,1.1875-.35937,1.65625-.78662,1.68066-.98633v-.00049c.09961-.80078-1.30566-1.64843-2.27539-1.77734a.5.5,0,0,1-.05078-.98193l.11523-.02735c.53516-.12548,1.43067-.33593,1.71094-.80615a.77274.77274,0,0,0,.04492-.62353c-.16406-.60157-1.95117-1.13086-2.958-1.00586a.49954.49954,0,0,1-.38868-.873,2.60517,2.60517,0,0,1,.93653-.38672c1.57812-.46777,2.44629-.94141,2.21679-1.98-.00781-.03564-.11425-.1709-.4873-.31494a10.86865,10.86865,0,0,0-3.49219-.43359c-2.38183,0-5.02344.37792-5.79.92089-.9834.69678-.88281,1.938-.77636,3.25245C61.251,69.80371,61.27051,70.0415,61.28125,70.27051Z"/><path class="cls-2" d="M202.73535,72.33453a.49725.49725,0,0,1-.47851-.49517c-.001-1.8379.03222-3.49707.06445-5.09815.06152-3.05615.11914-5.94287-.085-9.45019-.00781-.13331-.03516-.39747-.07129-.75684-.1731-1.719-.3186-3.481-.34772-5.05054l-8.09143,21.93708q4.50476.00705,9.00946.01263Z"/><path class="cls-3" d="M60.2832,70.31982A8.05133,8.05133,0,0,0,61.98633,75.418c1.03125,1.19775,3.11035,1.65527,5.18847,1.65527a13.88621,13.88621,0,0,0,3.86036-.53076c1.02246-.30957,2.26562-.87646,2.38281-1.82031v-.00049a2.5791,2.5791,0,0,0-1.60938-2.37451,2.22661,2.22661,0,0,0,.97657-.83008,1.74689,1.74689,0,0,0,.15039-1.39746,2.57822,2.57822,0,0,0-1.8545-1.478c1.00782-.44873,2.002-1.23193,1.67286-2.72119a1.56845,1.56845,0,0,0-1.10352-1.03223,7.509,7.509,0,0,0-1.73718-.38067.5104.5104,0,0,0,.0047-.14319,9.00576,9.00576,0,0,1,.93817-5.40637c.30218-.50544,2.00616-1.983,2.49054-1.33527a6.72944,6.72944,0,0,1-.118,1.30988,23.27161,23.27161,0,0,0,.20123,3.1969c.216,1.76031,2.59387,8.29254.23169,9.15087-.6001.218-.341,1.18476.26587.96424a1.71077,1.71077,0,0,0,.38849-.20514c.124,4.61389.941,9.30133,1.51416,13.8576a143.092,143.092,0,0,0,2.19732,14.85639c.14722.62622,1.1117.36114.9643-.26581-.13715-.58344-.26276-1.17072-.38135-1.76019.93.05163,5.129,7.48669,2.20844,11.70849-1.66669,2.40924-4.10566,3.19873-10.11927,3.32666l-1.81891-.36267a.44278.44278,0,0,0-.09076-.0357c-6.52935-1.124-5.73254-10.907-5.26159-15.96259a95.31456,95.31456,0,0,1,3.4129-18.70544.50043.50043,0,0,0-.96429-.26581A92.45769,92.45769,0,0,0,62.351,99.69543c-.25775,4.49946-.23089,11.50861,4.08686,13.91083a4.56639,4.56639,0,0,0,2.15045,2.52338c2.303.70373,5.18194.7677,5.054,2.23913-.36444,4.191-3.54876,17.14191-3.2528,21.05158-2.361,5.81616-3.726,14.37457.3374,19.69263,2.19177,2.86853,5.76593,3.59649,9.181,3.89154,4.91046.42431,9.83062-.1286,14.7442-.15937a.5003.5003,0,0,0,0-1c-3.8.02381-7.59216.35492-11.3938.31031-3.77441-.04425-8.52606-.13752-11.28662-3.109-4.23663-4.56043-3.07172-12.86261-.99323-18.42719,6.4336,3.66992,16.27118.79267,26.30848-1.29687l-.87964,56.63318a1.90152,1.90152,0,0,0,1.62207,2.22754,1.71039,1.71039,0,0,0,.18066.00927,2.67018,2.67018,0,0,0,2.44629-2.43408c.93359-5.78516,2.2627-13.78271,3.69531-22.40185,2.01575-12.12537,4.243-25.52582,5.85321-35.69928a30.31767,30.31767,0,0,1,3.06635.14,8.37474,8.37474,0,0,0,.87219.04651l.00873.00146.04816-.00158c.07751-.00281.157-.00513.23486-.00788,5.32037-.1875,11.57348-.12463,16.42963,2.30011,5.75164,2.87195,4.33184,10.19538,2.34606,15.16223-2.12011,5.303-6.15893,9.88062-9.49041,14.46143-.379.52112.48816,1.02069.86346.50476,4.32037-5.94061,9.50641-11.785,10.93671-19.2088.87549-4.54431.59125-9.2749-3.87433-11.64642-4.70227-2.49726-10.842-2.744-16.1582-2.60529a4.05022,4.05022,0,0,0-.00263-.79187l-.95379-5.40491h65.00085a.50074.50074,0,0,0-.1994.52588c.10351.42725.71972,6.00684,1.5,13.07031,1.68261,15.22071,4.49707,40.69629,6.248,51.55518a2.67182,2.67182,0,0,0,2.44727,2.43408,1.71039,1.71039,0,0,0,.18066-.00927,1.89721,1.89721,0,0,0,1.62207-2.21534l-1.00585-64.707c.458-.05615,1.15918-.09961,1.84277-.1416,2.30371-.14209,3.86035-.26709,4.47851-.69873,1.40332-.98,1.34082-2.02344,1.17872-2.55811a3.58911,3.58911,0,0,0-3.33985-2.12255l-7.99121-.16309a.52847.52847,0,0,0-.50976.48975.50022.50022,0,0,0,.49023.51025l7.98926.16309a2.63718,2.63718,0,0,1,2.40429,1.41308c.18457.60938-.33007,1.12354-.79394,1.44776a15.60549,15.60549,0,0,1-3.96777.5205,16.91062,16.91062,0,0,0-2.41407.23633.49961.49961,0,0,0-.374.4917l1.01269,65.14649c.02833.69873-.24218,1.14453-.72167,1.19287-.55665.04345-1.35059-.40821-1.542-1.58936-1.74609-10.83447-4.55957-36.29443-6.24023-51.50586-.9502-8.603-1.41211-12.75781-1.52344-13.20312a.49.49,0,0,0-.20038-.28321h5.049a.5.5,0,0,0,0-1h-84a.49972.49972,0,0,0-.5.5l.00074.00354a.49935.49935,0,0,0,.49926.49646h9.1352c-.31684,2.09748-.68756,4.47937-1.09681,7.0625-1.60766,10.14869-3.82135,23.46534-5.8255,35.523-1.43261,8.6211-2.76269,16.62061-3.69531,22.40674-.1914,1.18408-1.02539,1.63721-1.541,1.58936-.48047-.04834-.75-.49414-.72168-1.20508l.8833-56.86585.12842-8.26843a.49963.49963,0,0,0-.374-.4917,16.92978,16.92978,0,0,0-2.416-.23633c-.51056-.03155-1.15339-.07165-1.776-.126a6.96088,6.96088,0,0,1-2.18787-.39356,1.7249,1.7249,0,0,1-.68457-1.80859,1.46705,1.46705,0,0,1,1.59082-.98438l13.74707-.37988,17.25488.00562,5.61389.00177,43.27643.014,7.68976.00251a.5.5,0,0,0,0-1l-27.59766-.00891-20.45825-.00666-2.42016-.00079-21.75507-.007-1.61749-.00055-3.76734.10663.42578-2.53729,8.62964-.213c.34931-.56964.84558-1.40374,1.55927-2.63647,1.92413-3.32361-1.59052-8.519-3.83612-11.3006l1.36059-1.36059a25.07976,25.07976,0,0,1,4.53266,4.75946q.28353.98538.59192,1.96258c.19384.61121,1.1596.35.96423-.26587A57.4837,57.4837,0,0,1,113.954,99.29938a.49325.49325,0,0,0-.03394-.13526,1.73107,1.73107,0,0,0,.58-.81939,1.37739,1.37739,0,0,0-.27637-1.28662c-1.17285-1.50782-4.19629-1.95264-4.32422-1.97071a.50583.50583,0,0,0-.56543.42481.50007.50007,0,0,0,.42481.56543c.76172.10791,2.90625.605,3.67578,1.59424a.40686.40686,0,0,1,.11231.36865.89776.89776,0,0,1-.40528.46191,6.21407,6.21407,0,0,1-2.01465-.18408c-.57617-.10205-1.22949-.21777-1.87695-.28076-1.72656-.168-1.63965-2.88916-1.6377-2.91651a.50084.50084,0,0,0-.47949-.51953.48911.48911,0,0,0-.52051.47754c-.05371,1.27686.40625,3.7461,2.54,3.95361.60938.05958,1.21485.16651,1.79981.27a11.63627,11.63627,0,0,0,1.85058.2378c.02851,0,.04786-.00959.07563-.01032a.50618.50618,0,0,0-.041.136c-.23395,2.44629-3.82245,1.67938-5.12579.55731-2.16034-1.85986-3.27564-7.38336-.48139-8.97479a7.65764,7.65764,0,0,1,2.56739-.90692,9.46055,9.46055,0,0,0,1.38311.09466,13.07928,13.07928,0,0,0,1.36567-.07507,12.03246,12.03246,0,0,1,7.15429,4.3186,58.60486,58.60486,0,0,1,11.4693,22.46473c.15106.62524,1.1156.36047.96424-.26587a57.81672,57.81672,0,0,0-8.94159-19.14234c-2.395-3.461-5.09931-6.85229-8.9513-8.00177a5.23957,5.23957,0,0,0,.999-1.935,7.74275,7.74275,0,0,1,.3252-.83789.50006.50006,0,1,0-.89648-.44336,8.792,8.792,0,0,0-.373.95215c-.27832.79932-.59473,1.70557-1.19727,1.80957-.21594.0373-.44861.06617-.68634.09082a10.76866,10.76866,0,0,0-2.189.01252,4.39286,4.39286,0,0,1-1.2428-.285,10.27092,10.27092,0,0,1-5.11035-3.87646l-.27442-.3418a.5004.5004,0,0,0-.77929.62793l.27343.33936a10.9529,10.9529,0,0,0,5.03272,3.96289,4.80713,4.80713,0,0,0-3.42468,2.87835c-.74756,2.2746.40167,5.68586,1.75207,7.53778,1.40668,1.929,5.06952,2.88208,6.655,1.19031a56.07684,56.07684,0,0,0,1.45215,8.38025,40.90909,40.90909,0,0,0-3.36664-3.189,1.84,1.84,0,0,0-.43762-1.73481l-7.26746-7.69488-1.33691,4.01068-1.66309,3.15594c-6.69964-4.06042-10.70379-11.4284-11.94183-13.981a22.38555,22.38555,0,0,0,6.28039-5.637.441.441,0,0,0,.03058-.06811c.20014-.3833-.224-.72351-.5979-.63239a.49765.49765,0,0,0-.29614.19574,21.39585,21.39585,0,0,1-6.18652,5.44312,1.29977,1.29977,0,0,0-.608-.0799l-1.78576.23132a15.32729,15.32729,0,0,0-7.638,3.60712c-.365-2.70215-.64936-5.41937-.98316-8.0932-.58337-4.67328-1.43994-9.48608-1.46765-14.20673a.46006.46006,0,0,0-.101-.28625,5.524,5.524,0,0,0,.29993-1.16211c.57238-3.76178-1.67707-7.37268-1.25477-11.17975.06562-.59192.43152-1.176-.04193-1.687-.51147-.55188-1.655-.24731-2.2232-.038-2.81549,1.03692-3.42072,5.00634-3.04486,7.65332-2.78376-.15906-6.35157.25818-7.49585,1.06836-1.44824,1.02587-1.30762,2.75732-1.19531,4.14892C60.25391,69.87354,60.27246,70.10107,60.2832,70.31982Zm1.72461-4.01123c.7666-.543,3.40821-.92089,5.79-.92089a10.86865,10.86865,0,0,1,3.49219.43359c.373.144.47949.2793.4873.31494.2295,1.03857-.63867,1.51221-2.21679,1.98a2.60517,2.60517,0,0,0-.93653.38672.49954.49954,0,0,0,.38868.873c1.00683-.125,2.79394.40429,2.958,1.00586a.77274.77274,0,0,1-.04492.62353c-.28027.47022-1.17578.68067-1.71094.80615l-.11523.02735a.5.5,0,0,0,.05078.98193c.96973.12891,2.375.97656,2.27539,1.77734v.00049c-.02441.19971-.49316.627-1.68066.98633-2.41407.73145-6.62891.77344-8.001-.81934a7.12391,7.12391,0,0,1-1.46289-4.49511c-.01074-.229-.03027-.4668-.0498-.70947C61.125,68.24658,61.02441,67.00537,62.00781,66.30859Z"/><path class="cls-3" d="M90.6441,63.70605c.24427.17627.49225.3429.74262.49469a.50036.50036,0,0,0,.5047-.86346c-.22345-.13544-.449-.28827-.67328-.45074a5.90417,5.90417,0,0,1-2.73724-4.19275c-.08381-1.91144,1.452-3.93067,2.80645-5.11792a7.28292,7.28292,0,0,1,3.05152-1.66156c2.37762-.57642,4.68133.49029,5.99371,3.27606.27405.58172,1.13648.07471.86346-.50476-2.19116-4.65094-6.90618-5.16309-10.61578-1.81684a11.70451,11.70451,0,0,0-1.71631,1.927A6.35553,6.35553,0,0,0,87.525,59.03247,6.95708,6.95708,0,0,0,90.6441,63.70605Z"/><path class="cls-3" d="M94.7522,61.1756c-.23041.28869-.42127.591-.626.88849A17.06389,17.06389,0,0,0,91.663,74.71924c.55158,3.4956,1.54163,8.34411,4.9491,10.17792a5.90291,5.90291,0,0,0,.76434.34692c.605.22217.86591-.7439.26581-.96423a4.72334,4.72334,0,0,1-.50232-.227c-3.09564-1.565-3.96472-6.236-4.469-9.322C91.934,70.22211,92.49463,65.788,95.3183,62.0777a12.82746,12.82746,0,0,1,6.22388-4.50556,9.90633,9.90633,0,0,1,5.42877-.19824A14.4687,14.4687,0,0,1,117.4057,67.59882a.50043.50043,0,0,0,.9643-.26581,15.51072,15.51072,0,0,0-10.76886-10.82648C102.74261,55.083,97.80341,57.35242,94.7522,61.1756Z"/><path class="cls-3" d="M117.89258,72.17578a.50026.50026,0,0,0-.834-.55273,5.34947,5.34947,0,0,0-.84118,2.26318l-.01325-.00293a.48908.48908,0,0,0-.178-.08075q-3.4227-.77847-6.84527-1.55707a.54035.54035,0,0,0-.345.04938l-5.06049-.87494L101.476,71.0224a.9568.9568,0,0,1,.21295.46405,1.1648,1.1648,0,0,1,.03455.31036l.20764.06818,1.14685.37647,3.34729,1.09881a5.66847,5.66847,0,0,0,2.21161.25787c.31238,2.049,1.38123,4.07361,3.71832,4.18793a3.8678,3.8678,0,0,0,3.83973-2.72339,5.106,5.106,0,0,0,.10778.69074,5.373,5.373,0,0,0,.88282,1.91357,4.35026,4.35026,0,0,0,.55273.58985,2.25111,2.25111,0,0,1,.55078.65136.57022.57022,0,0,1,.05078.39405c-.11523.22558-.73242.37255-1.1416.46972a4.45512,4.45512,0,0,0-.87109.26709c-.69434.33643-.44629,1.33545-.36426,1.66162a11.00536,11.00536,0,0,1,.30371,2.00147,1.77774,1.77774,0,0,1-.35742.00488,4.12043,4.12043,0,0,0-.78027.021.49991.49991,0,0,0,.06738.99511.47251.47251,0,0,0,.06933-.00488,3.15858,3.15858,0,0,1,.60157-.01221c.41406.01807,1.11426.04639,1.31152-.72119a7.73668,7.73668,0,0,0-.24512-2.52343,1.97206,1.97206,0,0,1-.082-.55909,5.65747,5.65747,0,0,1,.57813-.15771c.65722-.15625,1.47558-.35108,1.80078-.98682a1.42461,1.42461,0,0,0-.01758-1.23144,3.00026,3.00026,0,0,0-.78906-.99707c-.03217-.03034-.06275-.06067-.09461-.09088a2.67263,2.67263,0,0,0,1.10535-1.20746.49994.49994,0,1,0-.91406-.40528c-.16016.36084-.55664.75342-.77149.76319-.01318.00061-.02392.00763-.0368.00927a4.33394,4.33394,0,0,1-.43683-1.07421,4.08942,4.08942,0,0,1-.06073-.47907q.40191.08779.80371.17566c.42725.09338,1.49964.52881,1.70044-.08551.12885-.394-.13214-.51276-.43964-.57959q-.30312-.06592-.60614-.13251-.73086-.15966-1.46173-.31946A4.3294,4.3294,0,0,1,117.89258,72.17578Zm-5.30194,4.61554c-1.9538.02417-2.75452-1.74573-2.98029-3.42255.51923.11615,1.15778.26709,1.21967.28064l.45373.09919q1.9965.45409,3.993.90826A2.88138,2.88138,0,0,1,112.59064,76.79132Z"/><path class="cls-3" d="M120.13092,184.80225c-.98413,1.7055-3.07111,2.2879-4.80035,2.91717-.6.21832-.34095,1.18506.26587.9643a11.69013,11.69013,0,0,0,4.61023-2.54145c1.79522,1.64868,4.21514,2.59522,6.39343,3.61481.85473.40009,7.15936,2.85992,6.54815,4.26984-1.96929,3.30011-6.73492,1.76965-9.8045,1.18127-.62878-.12054-.89819.843-.26581.96423,3.57691.68567,8.46118,2.19581,10.82556-1.48571a.45168.45168,0,0,0,.10822-.155c.8432-1.94507-2.13953-3.28095-3.44324-3.96582-3.13-1.64423-7.035-2.7132-9.66992-5.14356a.48358.48358,0,0,0-.08765-.05322,5.9981,5.9981,0,0,0,.89814-2.45258,88.08516,88.08516,0,0,0,.46014-17.64447c-.51166-8.65734-2.3009-18.66974-10.13263-23.73773-.54187-.35065-1.04376.51471-.5047.86347,7.23334,4.68078,8.99731,13.9367,9.57562,21.93194a110.97845,110.97845,0,0,1-.01184,13.71692C120.98926,180.10455,121.20032,182.949,120.13092,184.80225Z"/><path class="cls-3" d="M105.68445,179.75885c.01941-.64368-.98059-.64307-1,0a5.37425,5.37425,0,0,0,2.07184,4.43628c.50256.38946,1.21533-.31323.70709-.70709A4.44609,4.44609,0,0,1,105.68445,179.75885Z"/><path class="cls-3" d="M115.71423,195.75464c1.65985-.7815.89484-2.64032-.12469-3.70166-1.07477-1.11884-2.72009-1.44617-3.83173-2.54913-1.44952-1.4383-2.09051-3.23426-4.04657-4.09931-.58325-.25793-1.09265.60346-.5047.86347,2.12555.94,2.79157,3.28,4.571,4.62426.76965.58148,1.74023.84223,2.51483,1.40454,1.30139.94471,1.94763,2.38025-.00714,2.71259a13.1,13.1,0,0,1-5.545-.7486c-2.91663-1.06122-3.56415-4.48785-4.52277-7.089-.2207-.59881-1.18756-.34-.9643.26581.954,2.58869,1.78681,6.54914,4.6966,7.66858C109.804,195.81958,113.80634,196.653,115.71423,195.75464Z"/><path class="cls-3" d="M59.82214,180.29541a.5003.5003,0,0,0,0-1c-20.1123.16791-40.22448-.16791-60.33679,0a.5003.5003,0,0,0,0,1C19.59766,180.1275,39.70984,180.46332,59.82214,180.29541Z"/><path class="cls-3" d="M169.80554,179.29541H134.81085a.5003.5003,0,0,0,0,1h34.99469A.5003.5003,0,0,0,169.80554,179.29541Z"/><path class="cls-3" d="M271.48535,179.29541h-72a.5003.5003,0,0,0,0,1h72A.5003.5003,0,0,0,271.48535,179.29541Z"/><path class="cls-3" d="M63.40112,149.94391c-.52527,2.94726-2.15112,6.08514-1.33209,9.1239,1.14887,4.26245,6.12152,5.7818,10.046,6.50739-.87909,5.57122-1.692,11.15429-2.39532,16.75036-.36518,2.90546-.714,5.81738-.93116,8.73828-.09826,1.32239-.14337,3.02411,1.634,3.1236,2.07592.11615,2.456-3.236,2.90533-4.66058q1.91291-6.064,3.82568-12.128,1.407-4.46036,2.814-8.92077c.194-.61517-.77106-.87842-.9643-.26587q-3.37252,10.69162-6.74505,21.38312c-.17639.5592-.461,2.59527-.94568,2.99792-2.10889,1.752-1.498-1.88141-1.46136-2.31964.136-1.6275.31048-3.25183.49713-4.87421.756-6.57269,1.71289-13.12506,2.74536-19.65972a87.82338,87.82338,0,0,0,22.39172.43884c.63507-.06061.64136-1.06116,0-1a90.93284,90.93284,0,0,1-21.3742-.28369c-4.43158-.63233-11.41926-2.12177-11.262-7.85181a26.17261,26.17261,0,0,1,1.152-5.04565,38.94259,38.94259,0,0,0,.85016-5.52,45.94425,45.94425,0,0,0-.55835-11.43451c-1.40827-8.36457-5.556-16.78528-2.46491-25.27374.22059-.60566-.74542-.8667-.96423-.26581-3.10712,8.53222.90375,16.95642,2.3891,25.35583A43.27877,43.27877,0,0,1,63.40112,149.94391Z"/><path class="cls-3" d="M245.65271,74.43451q1.833-.005,3.666-.01544a.5003.5003,0,0,0,0-1q-1.833.01272-3.666.01544A.5003.5003,0,0,0,245.65271,74.43451Z"/><path class="cls-3" d="M174.26624,79.04382c.34143,1.25464,2.02355.72589,2.97912.65442.63782-.04773.643-1.04815,0-1a8.19983,8.19983,0,0,1-1.48877.11139c-.38055-.04663-.43542.04675-.55572-.41833a5.894,5.894,0,0,1-.07477-.99488q-.113-1.5032-.22589-3.00647,9.14987.0629,18.30066.06482l.14355.00019c11.33631.01342,22.673-.00946,34.00849-.00733q7.98312.00156,15.96624-.00812a.5003.5003,0,0,0,0-1c-3.36517.00562-6.73034.00037-10.09552.00251q-15.24408.00979-30.48828-.00867-4.50476-.006-9.00946-.01263-1.67065-.00257-3.34131-.0047-4.34454-.007-8.68915-.01221c-2.32263-.00379-4.64556.00146-6.96814-.01465a.45563.45563,0,0,0-.35711.15.43282.43282,0,0,0-.49823.47467l.20929,2.78565A12.401,12.401,0,0,0,174.26624,79.04382Z"/><path class="cls-3" d="M233.22363,59.67871a.49972.49972,0,0,0-.5.5v2.833a.5.5,0,1,0,1,0v-2.833A.49971.49971,0,0,0,233.22363,59.67871Z"/><path class="cls-3" d="M202.165,56.53418c.03613.35937.06348.62353.07129.75684.2041,3.50732.14648,6.394.085,9.45019-.03223,1.60108-.06543,3.26025-.06445,5.09815a.49725.49725,0,0,0,.47851.49517c.00757.00037.01386.00434.02149.00434a.50013.50013,0,0,0,.5-.50049c-.001-1.83008.03222-3.48242.06347-5.07715.0625-3.07617.1211-5.98193-.08593-9.52832-.00782-.14062-.03614-.41943-.07422-.79883-.5293-5.26367-.4502-8.31738.23632-9.07715.08692-.09521.14454-.09521.17579-.09521h4.32714a1.33754,1.33754,0,0,0,1.33594-1.33594v-.65625a.33623.33623,0,0,1,.33594-.33594h4.32812a1.33753,1.33753,0,0,0,1.33594-1.33593.33623.33623,0,0,1,.33594-.33594h6.01953a.33623.33623,0,0,1,.33594.33594,1.33753,1.33753,0,0,0,1.333,1.33593l.6416-.00634c6.63086-.08155,8.39746.24707,8.82226.48291v6.43505a.5.5,0,1,0,1,0V45.26953a.72776.72776,0,0,0-.23047-.52637,1.13753,1.13753,0,0,0-.26953-.18274,2.22608,2.22608,0,0,0-.29425-.1267c-1.19751-.42072-3.97552-.56958-9.04071-.50647l-.62695.00634a.336.336,0,0,1-.335-.33593,1.33754,1.33754,0,0,0-1.33594-1.33594h-6.01953a1.33754,1.33754,0,0,0-1.33594,1.33594.33623.33623,0,0,1-.33594.33593h-4.32812a1.33754,1.33754,0,0,0-1.33594,1.33594v.65625a.33623.33623,0,0,1-.33594.33594h-4.32714a1.217,1.217,0,0,0-.917.42432,3.79351,3.79351,0,0,0-.70575,1.95111,18.10276,18.10276,0,0,0-.1322,2.84649C201.84644,53.05316,201.99194,54.81519,202.165,56.53418Z"/><path class="cls-3" d="M193.23,56.70435l.00043.00024a.49973.49973,0,0,0,.6416-.29639l3.14551-8.52539a.4934.4934,0,0,1,.25879-.28027.50025.50025,0,0,1,.38281-.01514l1.39746.51612a.5.5,0,0,0,.6416-.2959l.00012-.0008a.49957.49957,0,0,0-.296-.64178l-1.39746-.51611a1.499,1.499,0,0,0-1.92578.88867l-3.14453,8.5249A.50021.50021,0,0,0,193.23,56.70435Z"/><path class="cls-3" d="M191.30273,62.80518a.5158.5158,0,0,0,.13184.01757.50053.50053,0,0,0,.48242-.36816l.79492-2.90527a.49643.49643,0,0,0-.31182-.59473c-.01386-.00519-.02424-.0155-.03876-.01953a.50247.50247,0,0,0-.61426.35058l-.79492,2.90528a.52388.52388,0,0,0,.35058.61426Z"/><path class="cls-4" d="M91.21814,62.88654a25.26261,25.26261,0,0,1,8.12622-7.249,5.79006,5.79006,0,0,0-5.00549-3.72326,7.28292,7.28292,0,0,0-3.05152,1.66156c-1.35449,1.18725-2.89026,3.20648-2.80645,5.11792A5.90417,5.90417,0,0,0,91.21814,62.88654Z"/><path class="cls-4" d="M87.525,59.03247A6.35553,6.35553,0,0,1,88.864,54.79578a8.336,8.336,0,0,0-2.19256,4.0877,5.40334,5.40334,0,0,0,3.23309,6.00965c.22943-.40143.48157-.7956.73962-1.18708A6.95708,6.95708,0,0,1,87.525,59.03247Z"/><path class="cls-4" d="M101.93115,71.865a6.353,6.353,0,0,1,.50873,1.1297c.22284-.26721.43445-.51532.63812-.75323Z"/><path class="cls-4" d="M103.77533,71.41992c.20789-.24884.40027-.48443.55267-.69244.65436-.89307.49066-4.1911,2.43036-5.05884,2.15155-.96277,6.48248.40222,7.73212,1.14911a3.8204,3.8204,0,0,1,1.57654,1.67309c.58075,1.24793.81036,1.38794.46978-.16387a14.0584,14.0584,0,0,0-3.83654-6.68177c-2.26123-2.13513-6.309-4.30084-9.4076-4.22925a13.20787,13.20787,0,0,0-1.75048.15619A12.82746,12.82746,0,0,0,95.3183,62.0777C92.49463,65.788,91.934,70.22211,92.67084,74.73083c.50433,3.08606,1.37341,7.757,4.469,9.322l.02167-.03461a19.99933,19.99933,0,0,1,1.57263-5.28992c-2.47369-2.16675-3.2901-7.16644-1.12268-8.236a2.94517,2.94517,0,0,1,4.07745.99414.9568.9568,0,0,0-.21295-.46405Z"/><path class="cls-4" d="M91.663,74.71924a17.06389,17.06389,0,0,1,2.46326-12.65515A22.44481,22.44481,0,0,0,91.83289,65.083c.09661-.01062.18982-.01209.28857-.02857a18.41358,18.41358,0,0,0-1.51227,9.08478c.2489,2.97077,1.434,7.30139,3.6474,9.88739.3739-.09112.798.24909.5979.63239a6.22912,6.22912,0,0,0,1.30384.9638l.45373-.72564C93.20459,83.06335,92.21454,78.21484,91.663,74.71924Z"/><path class="cls-4" d="M108.97852,70.07178c-.40387.49444.29962,1.206.70709.70715a4.75291,4.75291,0,0,1,4.197-1.57275c.636.08429.62976-.91651,0-1A5.64234,5.64234,0,0,0,108.97852,70.07178Z"/><path class="cls-4" d="M171.21844,94.64124l-20.25494-2.3194c-1.86206.06933-3.47809.50909-4.18866,1.7785a87.39492,87.39492,0,0,0-3.65912,8.64527q-2.71581,6.41674-5.4317,12.83349c-.9668,2.28424-1.81464,4.67841-2.92047,6.90021a6.83962,6.83962,0,0,1-2.66614,2.95776l20.45825.00666,6.67334-.05353a4.7424,4.7424,0,0,0,4.33649-2.91083l9.84522-23.51562C174.652,96.17853,174.31873,94.84515,171.21844,94.64124Zm-11.1463,15.17254a4.95271,4.95271,0,0,1-4.10882,2.957l.68023-1.58685.55738.03509.68127.043a.99433.99433,0,0,0,.86945-.55212l.94385-1.97839c.16748-.35114.0191-.65369-.33149-.67579H159.364a1.07286,1.07286,0,0,0-.938.59571l-.69738,1.46185-.55744-.03516,1.46289-3.06628c.16748-.35107.019-.65363-.33154-.67578a1.073,1.073,0,0,0-.93811.59576l-1.041,2.182-.65026-.041.452-.94744c.16754-.35114.01911-.65369-.33148-.67579a1.073,1.073,0,0,0-.93811.59571l-.7367,1.54419c-.15521.32544-.01763.60583.30726.62634l.06195.00391.61932.039.65027.041-1.00971,2.28485c-1.48669-.5368-2.10119-2.18115-1.35638-3.92462a4.784,4.784,0,0,1,4.83173-2.91418C160.068,106.06439,160.89581,107.88568,160.07214,109.81378Z"/><path class="cls-4" d="M132.28644,124.13019a9.22158,9.22158,0,0,0,2.2428-3.64215q4.84854-11.45554,9.697-22.91095c.76623-1.81049,1.39154-4.54969,3.188-5.66168l-.10169-.01166a3.67578,3.67578,0,0,0-1.06219-.09589h-.00006a3.67724,3.67724,0,0,0-3.21491,2.31751l-11.43115,26.08429a3.61151,3.61151,0,0,1-3.21875,2.16088l-16.79273.41449-8.62964.213-.42578,2.53729,3.76734-.10663,1.61749.00055,21.75507.007A5.90537,5.90537,0,0,0,132.28644,124.13019Z"/></svg>